<?xml version="1.0" standalone="no"?>
<!DOCTYPE svg PUBLIC "-//W3C//DTD SVG 20010904//EN"
 "http://www.w3.org/TR/2001/REC-SVG-20010904/DTD/svg10.dtd">
<svg version="1.0" xmlns="http://www.w3.org/2000/svg"
 width="200.000000pt" height="200.000000pt" viewBox="0 0 200.000000 200.000000"
 preserveAspectRatio="xMidYMid meet">

<g transform="translate(0.000000,200.000000) scale(0.100000,-0.100000)"
fill="#000000" stroke="none">
<path d="M0 1000 l0 -1000 1000 0 1000 0 0 1000 0 1000 -1000 0 -1000 0 0
-1000z m583 63 c-20 -4 -23 -11 -23 -54 0 -27 -4 -49 -10 -49 -5 0 -10 22 -10
49 0 43 -3 50 -22 54 -13 2 2 4 32 4 30 0 45 -2 33 -4z m227 -49 l0 -55 -31 3
c-39 4 -59 30 -43 56 7 9 21 17 33 16 14 0 21 5 21 18 0 10 5 18 10 18 6 0 10
-25 10 -56z m417 -26 c-2 -18 -4 -6 -4 27 0 33 2 48 4 33 2 -15 2 -42 0 -60z
m183 72 c0 -5 -2 -10 -4 -10 -3 0 -8 5 -11 10 -3 6 -1 10 4 10 6 0 11 -4 11
-10z m-975 -32 c-11 -55 -16 -68 -26 -68 -6 0 -7 15 -4 38 9 53 13 62 25 62 8
0 9 -11 5 -32z m933 15 c12 -12 13 -18 4 -21 -16 -5 -16 -49 1 -56 6 -3 3 -5
-8 -3 -20 2 -38 57 -28 84 7 17 11 16 31 -4z m-968 -21 c0 -22 -17 -48 -25
-40 -10 10 5 69 16 62 5 -3 9 -13 9 -22z m228 4 c-10 -7 -18 -25 -18 -40 0
-14 -4 -26 -10 -26 -10 0 -15 62 -5 71 2 3 14 5 27 6 21 2 22 1 6 -11z m80
-29 c3 -37 2 -38 -25 -35 -38 4 -45 38 -8 38 17 0 25 5 22 13 -2 6 -15 11 -28
9 -19 -2 -21 -1 -9 8 27 19 45 7 48 -33z m182 28 c16 -19 4 -35 -28 -35 -28 0
-21 -14 13 -23 12 -3 8 -5 -10 -4 -25 2 -31 7 -33 31 -5 41 32 62 58 31z m118
3 c7 -7 12 -25 12 -41 0 -26 -3 -28 -32 -25 -38 4 -46 31 -10 36 12 2 22 10
22 18 0 11 -6 13 -21 9 -15 -5 -19 -4 -15 4 9 14 29 14 44 -1z m99 -33 c0 -23
-1 -29 -4 -15 -11 55 -43 62 -43 9 0 -16 -4 -29 -10 -29 -5 0 -10 17 -10 38 0
36 1 38 33 37 30 0 32 -2 34 -40z m83 26 c5 -11 10 -29 10 -41 0 -18 -5 -21
-32 -18 -39 4 -46 31 -10 36 31 5 22 28 -9 24 -19 -2 -21 -1 -9 7 23 16 38 13
50 -8z m110 -10 c8 18 15 28 17 23 4 -12 -35 -104 -44 -104 -3 0 -2 7 1 16 3
8 -1 28 -9 44 -8 16 -15 35 -15 42 1 7 9 -2 19 -21 l18 -33 13 33z m110 -11
c0 -22 -4 -40 -10 -40 -11 0 -14 63 -3 73 11 12 13 8 13 -33z m76 28 c5 -7 2
-9 -9 -5 -19 7 -41 -17 -34 -37 3 -8 16 -17 29 -19 16 -4 14 -5 -7 -4 -23 2
-31 7 -33 25 -6 39 36 70 54 40z m74 1 c12 -8 10 -9 -7 -4 -32 9 -39 -13 -8
-25 34 -13 27 -35 -11 -37 -20 -1 -22 0 -6 4 24 5 31 23 8 23 -19 0 -29 17
-22 35 6 17 25 19 46 4z m-1200 -19 c0 -11 -4 -20 -10 -20 -5 0 -10 9 -10 20
0 11 5 20 10 20 6 0 10 -9 10 -20z m110 6 c0 -16 -18 -31 -27 -22 -8 8 5 36
17 36 5 0 10 -6 10 -14z"/>
<path d="M750 995 c0 -18 5 -25 20 -25 15 0 20 7 20 25 0 18 -5 25 -20 25 -15
0 -20 -7 -20 -25z"/>
<path d="M668 978 c9 -9 15 -9 24 0 9 9 7 12 -12 12 -19 0 -21 -3 -12 -12z"/>
<path d="M847 1024 c-13 -13 -7 -24 14 -24 11 0 19 5 17 12 -5 14 -22 21 -31
12z"/>
<path d="M970 980 c0 -5 7 -10 15 -10 8 0 15 5 15 10 0 6 -7 10 -15 10 -8 0
-15 -4 -15 -10z"/>
<path d="M1150 980 c0 -5 7 -10 15 -10 8 0 15 5 15 10 0 6 -7 10 -15 10 -8 0
-15 -4 -15 -10z"/>
</g>
</svg>
