<?xml version="1.0" standalone="no"?>
<!DOCTYPE svg PUBLIC "-//W3C//DTD SVG 20010904//EN"
 "http://www.w3.org/TR/2001/REC-SVG-20010904/DTD/svg10.dtd">
<svg version="1.0" xmlns="http://www.w3.org/2000/svg"
 width="512.000000pt" height="512.000000pt" viewBox="0 0 512.000000 512.000000"
 preserveAspectRatio="xMidYMid meet">

<g transform="translate(0.000000,512.000000) scale(0.100000,-0.100000)"
fill="#000000" stroke="none">
<path d="M4460 4643 c-19 -2 -165 -12 -325 -24 -223 -16 -298 -25 -325 -38
-46 -22 -85 -97 -76 -144 9 -50 40 -92 81 -111 35 -17 51 -17 188 -7 83 6 151
10 153 8 2 -1 -214 -220 -480 -486 l-483 -483 -562 477 c-309 262 -577 485
-594 495 -38 23 -88 26 -125 6 -15 -8 -352 -340 -749 -738 l-723 -723 0 -55
c0 -67 24 -110 73 -133 44 -21 89 -22 131 -2 18 9 324 308 682 666 591 592
651 649 669 638 10 -6 265 -219 565 -473 300 -254 556 -470 570 -479 28 -19
100 -23 133 -6 12 6 264 252 560 548 484 483 537 533 537 506 0 -17 -5 -79
-10 -140 -13 -129 0 -179 53 -217 43 -31 124 -32 164 -2 56 42 60 58 87 384
34 402 34 439 -1 481 -44 52 -84 63 -193 52z"/>
<path d="M1605 2944 c-49 -25 -644 -623 -666 -669 -18 -38 -19 -79 -19 -854 0
-802 0 -815 21 -857 15 -31 32 -48 64 -64 42 -20 55 -21 377 -18 370 3 367 3
408 71 19 31 20 60 20 1168 l0 1136 -23 34 c-41 62 -120 85 -182 53z"/>
<path d="M2215 2946 c-50 -22 -83 -69 -90 -128 -3 -29 -5 -544 -3 -1145 3
-1084 3 -1092 24 -1119 11 -15 33 -37 48 -48 27 -20 40 -21 376 -21 336 0 349
1 376 21 15 11 37 33 48 48 21 27 21 37 24 829 2 441 0 822 -3 847 -6 43 -19
58 -333 374 -182 182 -341 334 -359 342 -40 17 -69 17 -108 0z"/>
<path d="M4015 2946 c-40 -19 -661 -644 -675 -679 -7 -19 -10 -302 -10 -848 0
-901 -2 -864 61 -910 l34 -24 333 -3 c322 -3 335 -2 377 18 32 16 49 33 64 64
21 42 21 52 21 1157 l0 1115 -22 44 c-37 71 -112 98 -183 66z"/>
</g>
</svg>
